<svg width="54" height="62" viewBox="0 0 54 62" fill="none" xmlns="http://www.w3.org/2000/svg">
<path d="M0 11.625C0 9.48527 1.72728 7.75 3.85714 7.75H50.1429C52.2763 7.75 54 9.48527 54 11.625C54 13.7684 52.2763 15.5 50.1429 15.5H3.85714C1.72728 15.5 0 13.7684 0 11.625ZM0 31C0 28.8566 1.72728 27.125 3.85714 27.125H50.1429C52.2763 27.125 54 28.8566 54 31C54 33.1434 52.2763 34.875 50.1429 34.875H3.85714C1.72728 34.875 0 33.1434 0 31ZM50.1429 54.25H3.85714C1.72728 54.25 0 52.5184 0 50.375C0 48.2316 1.72728 46.5 3.85714 46.5H50.1429C52.2763 46.5 54 48.2316 54 50.375C54 52.5184 52.2763 54.25 50.1429 54.25Z" fill="white"/>
</svg>
