<svg width="337" height="36" viewBox="0 0 337 36" fill="none" xmlns="http://www.w3.org/2000/svg">
<path d="M28.6004 36H12.8504C8.68372 36 5.58372 35.1667 3.55039 33.5C1.55039 31.8333 0.550391 29.2667 0.550391 25.8V10.2C0.550391 6.73333 1.55039 4.16667 3.55039 2.5C5.58372 0.833332 8.68372 -1.43051e-06 12.8504 -1.43051e-06H25.3504C25.9837 -1.43051e-06 26.4337 0.149999 26.7004 0.449999C27.0004 0.716666 27.1504 1.16667 27.1504 1.8V7.85C27.1504 8.48333 27.0004 8.95 26.7004 9.25C26.4337 9.51667 25.9837 9.65 25.3504 9.65H14.9504C13.9171 9.65 13.1504 9.86667 12.6504 10.3C12.1504 10.7 11.9004 11.3167 11.9004 12.15V24.1C11.9004 24.9333 12.0837 25.55 12.4504 25.95C12.8504 26.35 13.4337 26.55 14.2004 26.55H19.0504V18.75C19.0504 18.1167 19.1837 17.6667 19.4504 17.4C19.7504 17.1 20.2171 16.95 20.8504 16.95H28.6004C29.2337 16.95 29.6837 17.1 29.9504 17.4C30.2504 17.6667 30.4004 18.1167 30.4004 18.75V34.2C30.4004 34.8333 30.2504 35.3 29.9504 35.6C29.6837 35.8667 29.2337 36 28.6004 36ZM15.0004 31.5H24.9504V21.45H24.4504V31H15.0004C11.6337 31 9.36706 30.55 8.20039 29.65C7.06706 28.75 6.50039 27.2167 6.50039 25.05V11.05C6.50039 8.85 7.01706 7.3 8.05039 6.4C9.08372 5.46667 11.0671 5 14.0004 5H22.6504V4.5H14.0004C10.8004 4.5 8.66706 5 7.60039 6C6.53372 7 6.00039 8.68333 6.00039 11.05V25.05C6.00039 26.2167 6.11706 27.2167 6.35039 28.05C6.61706 28.85 7.08372 29.5167 7.75039 30.05C8.41706 30.55 9.33372 30.9167 10.5004 31.15C11.6671 31.3833 13.1671 31.5 15.0004 31.5ZM41.5508 20.85C41.5508 19.95 41.6174 19.1167 41.7508 18.35C41.9174 17.5833 42.1174 16.8667 42.3508 16.2L45.5508 8C45.8841 7.16667 46.2508 6.46666 46.6508 5.9C47.0508 5.3 47.7508 5 48.7508 5H53.6508C54.5841 5 55.2508 5.3 55.6508 5.9C56.0508 6.46666 56.4341 7.18333 56.8008 8.05L60.2508 16.2C60.4841 16.8667 60.6674 17.5833 60.8008 18.35C60.9674 19.1167 61.0508 19.95 61.0508 20.85V22.4H41.5508V20.85ZM49.5508 10.5L47.2008 18.1H55.0508L52.7008 10.5C52.5674 10.2 52.4174 9.98333 52.2508 9.85C52.1174 9.71667 51.9508 9.65 51.7508 9.65H50.5008C50.3008 9.65 50.1174 9.71667 49.9508 9.85C49.8174 9.98333 49.6841 10.2 49.5508 10.5ZM61.0508 31.5H61.5508V20.85C61.5508 19.9167 61.4674 19.0667 61.3008 18.3C61.1674 17.5 60.9675 16.7333 60.7008 16L57.2508 7.85C56.8508 6.88333 56.4174 6.08333 55.9508 5.45C55.5174 4.81666 54.7508 4.5 53.6508 4.5H48.7508C47.6174 4.5 46.8174 4.81666 46.3508 5.45C45.8841 6.08333 45.4674 6.86667 45.1008 7.8L41.9008 16C41.6341 16.7333 41.4174 17.5 41.2508 18.3C41.1174 19.0667 41.0508 19.9167 41.0508 20.85V31.5H41.5508V22.9H61.0508V31.5ZM46.7008 34.2C46.7008 34.8333 46.5508 35.3 46.2508 35.6C45.9841 35.8667 45.5341 36 44.9008 36H37.5508C36.9174 36 36.4508 35.8667 36.1508 35.6C35.8841 35.3 35.7508 34.8333 35.7508 34.2V21C35.7508 20 35.9008 18.85 36.2008 17.55C36.5341 16.25 37.0341 14.7333 37.7008 13L42.0508 1.65C42.2508 1.08333 42.5508 0.666665 42.9508 0.399999C43.3841 0.133332 43.9341 -1.43051e-06 44.6008 -1.43051e-06H58.0508C58.6841 -1.43051e-06 59.2008 0.133332 59.6008 0.399999C60.0341 0.666665 60.3508 1.08333 60.5508 1.65L64.9008 13C65.5674 14.7333 66.0508 16.25 66.3508 17.55C66.6841 18.85 66.8508 20 66.8508 21V34.2C66.8508 34.8333 66.7008 35.3 66.4008 35.6C66.1341 35.8667 65.6841 36 65.0508 36H57.5008C56.8341 36 56.3341 35.8667 56.0008 35.6C55.7008 35.3 55.5508 34.8333 55.5508 34.2V27.2H46.7008V34.2ZM90.6242 16.75C90.0242 16.75 89.5909 16.6167 89.3242 16.35C89.0576 16.0833 88.6409 15.5167 88.0742 14.65L81.9742 5.35C81.7742 5.01667 81.5409 4.8 81.2742 4.7C81.0076 4.56666 80.7409 4.5 80.4742 4.5H79.6242C79.1909 4.5 78.8576 4.63333 78.6242 4.9C78.4242 5.13333 78.3242 5.51667 78.3242 6.05V31.5H78.8242V6.05C78.8242 5.78333 78.8742 5.55 78.9742 5.35C79.0742 5.11667 79.2909 5 79.6242 5H80.3742C80.6076 5 80.8076 5.03333 80.9742 5.1C81.1742 5.16666 81.3742 5.36666 81.5742 5.7L87.6742 14.9C88.2742 15.8 88.7242 16.4167 89.0242 16.75C89.3576 17.0833 89.8909 17.25 90.6242 17.25C91.3576 17.25 91.8742 17.0833 92.1742 16.75C92.5076 16.4167 92.9742 15.8 93.5742 14.9L99.6742 5.7C99.8742 5.36666 100.058 5.16666 100.224 5.1C100.391 5.03333 100.591 5 100.824 5H101.574C101.908 5 102.124 5.11667 102.224 5.35C102.358 5.55 102.424 5.78333 102.424 6.05V31.5H102.924V6.05C102.924 5.51667 102.808 5.13333 102.574 4.9C102.374 4.63333 102.041 4.5 101.574 4.5H100.724C100.458 4.5 100.191 4.56666 99.9242 4.7C99.6909 4.8 99.4742 5.01667 99.2742 5.35L93.1742 14.65C92.6076 15.5167 92.1909 16.0833 91.9242 16.35C91.6576 16.6167 91.2242 16.75 90.6242 16.75ZM82.2742 36H74.8242C74.1909 36 73.7242 35.8667 73.4242 35.6C73.1576 35.3 73.0242 34.8333 73.0242 34.2V1.8C73.0242 1.16667 73.1576 0.716666 73.4242 0.449999C73.7242 0.149999 74.1909 -1.43051e-06 74.8242 -1.43051e-06H82.8742C83.4076 -1.43051e-06 83.8409 0.116665 84.1742 0.349997C84.5409 0.583331 84.8742 0.966665 85.1742 1.5L89.6742 9.65C89.8409 9.95 89.9742 10.1667 90.0742 10.3C90.2076 10.4333 90.3742 10.5 90.5742 10.5H91.0242C91.2242 10.5 91.3742 10.4333 91.4742 10.3C91.6076 10.1667 91.7576 9.95 91.9242 9.65L96.3742 1.5C96.6742 0.966665 96.9909 0.583331 97.3242 0.349997C97.6909 0.116665 98.1409 -1.43051e-06 98.6742 -1.43051e-06H106.774C107.408 -1.43051e-06 107.858 0.149999 108.124 0.449999C108.424 0.716666 108.574 1.16667 108.574 1.8V34.2C108.574 34.8333 108.424 35.3 108.124 35.6C107.858 35.8667 107.408 36 106.774 36H99.0742C98.4409 36 97.9742 35.8667 97.6742 35.6C97.4076 35.3 97.2742 34.8333 97.2742 34.2V16.6L94.3242 22.05C94.0242 22.6167 93.6576 23.0333 93.2242 23.3C92.8242 23.5333 92.3076 23.65 91.6742 23.65H89.6742C89.0409 23.65 88.5076 23.5333 88.0742 23.3C87.6742 23.0333 87.3242 22.6167 87.0242 22.05L84.0742 16.6V34.2C84.0742 34.8333 83.9242 35.3 83.6242 35.6C83.3576 35.8667 82.9076 36 82.2742 36ZM140.456 36H117.256C116.623 36 116.156 35.8667 115.856 35.6C115.589 35.3 115.456 34.8333 115.456 34.2V1.8C115.456 1.16667 115.589 0.716666 115.856 0.449999C116.156 0.149999 116.623 -1.43051e-06 117.256 -1.43051e-06H140.456C141.089 -1.43051e-06 141.539 0.149999 141.806 0.449999C142.106 0.716666 142.256 1.16667 142.256 1.8V7.65C142.256 8.28333 142.106 8.75 141.806 9.05C141.539 9.31667 141.089 9.45 140.456 9.45H126.656V13.3H136.406C137.039 13.3 137.489 13.45 137.756 13.75C138.056 14.0167 138.206 14.4667 138.206 15.1V20.45C138.206 21.0833 138.056 21.55 137.756 21.85C137.489 22.1167 137.039 22.25 136.406 22.25H126.656V26.55H140.456C141.089 26.55 141.539 26.7 141.806 27C142.106 27.2667 142.256 27.7167 142.256 28.35V34.2C142.256 34.8333 142.106 35.3 141.806 35.6C141.539 35.8667 141.089 36 140.456 36ZM137.756 31H121.406V18.05H133.706V17.55H121.406V5H137.756V4.5H120.906V31.5H137.756V31ZM177.001 16.75C176.401 16.75 175.968 16.6167 175.701 16.35C175.435 16.0833 175.018 15.5167 174.451 14.65L168.351 5.35C168.151 5.01667 167.918 4.8 167.651 4.7C167.385 4.56666 167.118 4.5 166.851 4.5H166.001C165.568 4.5 165.235 4.63333 165.001 4.9C164.801 5.13333 164.701 5.51667 164.701 6.05V31.5H165.201V6.05C165.201 5.78333 165.251 5.55 165.351 5.35C165.451 5.11667 165.668 5 166.001 5H166.751C166.985 5 167.185 5.03333 167.351 5.1C167.551 5.16666 167.751 5.36666 167.951 5.7L174.051 14.9C174.651 15.8 175.101 16.4167 175.401 16.75C175.735 17.0833 176.268 17.25 177.001 17.25C177.735 17.25 178.251 17.0833 178.551 16.75C178.885 16.4167 179.351 15.8 179.951 14.9L186.051 5.7C186.251 5.36666 186.435 5.16666 186.601 5.1C186.768 5.03333 186.968 5 187.201 5H187.951C188.285 5 188.501 5.11667 188.601 5.35C188.735 5.55 188.801 5.78333 188.801 6.05V31.5H189.301V6.05C189.301 5.51667 189.185 5.13333 188.951 4.9C188.751 4.63333 188.418 4.5 187.951 4.5H187.101C186.835 4.5 186.568 4.56666 186.301 4.7C186.068 4.8 185.851 5.01667 185.651 5.35L179.551 14.65C178.985 15.5167 178.568 16.0833 178.301 16.35C178.035 16.6167 177.601 16.75 177.001 16.75ZM168.651 36H161.201C160.568 36 160.101 35.8667 159.801 35.6C159.535 35.3 159.401 34.8333 159.401 34.2V1.8C159.401 1.16667 159.535 0.716666 159.801 0.449999C160.101 0.149999 160.568 -1.43051e-06 161.201 -1.43051e-06H169.251C169.785 -1.43051e-06 170.218 0.116665 170.551 0.349997C170.918 0.583331 171.251 0.966665 171.551 1.5L176.051 9.65C176.218 9.95 176.351 10.1667 176.451 10.3C176.585 10.4333 176.751 10.5 176.951 10.5H177.401C177.601 10.5 177.751 10.4333 177.851 10.3C177.985 10.1667 178.135 9.95 178.301 9.65L182.751 1.5C183.051 0.966665 183.368 0.583331 183.701 0.349997C184.068 0.116665 184.518 -1.43051e-06 185.051 -1.43051e-06H193.151C193.785 -1.43051e-06 194.235 0.149999 194.501 0.449999C194.801 0.716666 194.951 1.16667 194.951 1.8V34.2C194.951 34.8333 194.801 35.3 194.501 35.6C194.235 35.8667 193.785 36 193.151 36H185.451C184.818 36 184.351 35.8667 184.051 35.6C183.785 35.3 183.651 34.8333 183.651 34.2V16.6L180.701 22.05C180.401 22.6167 180.035 23.0333 179.601 23.3C179.201 23.5333 178.685 23.65 178.051 23.65H176.051C175.418 23.65 174.885 23.5333 174.451 23.3C174.051 23.0333 173.701 22.6167 173.401 22.05L170.451 16.6V34.2C170.451 34.8333 170.301 35.3 170.001 35.6C169.735 35.8667 169.285 36 168.651 36ZM206.883 20.85C206.883 19.95 206.949 19.1167 207.083 18.35C207.249 17.5833 207.449 16.8667 207.683 16.2L210.883 8C211.216 7.16667 211.583 6.46666 211.983 5.9C212.383 5.3 213.083 5 214.083 5H218.983C219.916 5 220.583 5.3 220.983 5.9C221.383 6.46666 221.766 7.18333 222.133 8.05L225.583 16.2C225.816 16.8667 225.999 17.5833 226.133 18.35C226.299 19.1167 226.383 19.95 226.383 20.85V22.4H206.883V20.85ZM214.883 10.5L212.533 18.1H220.383L218.033 10.5C217.899 10.2 217.749 9.98333 217.583 9.85C217.449 9.71667 217.283 9.65 217.083 9.65H215.833C215.633 9.65 215.449 9.71667 215.283 9.85C215.149 9.98333 215.016 10.2 214.883 10.5ZM226.383 31.5H226.883V20.85C226.883 19.9167 226.799 19.0667 226.633 18.3C226.499 17.5 226.299 16.7333 226.033 16L222.583 7.85C222.183 6.88333 221.749 6.08333 221.283 5.45C220.849 4.81666 220.083 4.5 218.983 4.5H214.083C212.949 4.5 212.149 4.81666 211.683 5.45C211.216 6.08333 210.799 6.86667 210.433 7.8L207.233 16C206.966 16.7333 206.749 17.5 206.583 18.3C206.449 19.0667 206.383 19.9167 206.383 20.85V31.5H206.883V22.9H226.383V31.5ZM212.033 34.2C212.033 34.8333 211.883 35.3 211.583 35.6C211.316 35.8667 210.866 36 210.233 36H202.883C202.249 36 201.783 35.8667 201.483 35.6C201.216 35.3 201.083 34.8333 201.083 34.2V21C201.083 20 201.233 18.85 201.533 17.55C201.866 16.25 202.366 14.7333 203.033 13L207.383 1.65C207.583 1.08333 207.883 0.666665 208.283 0.399999C208.716 0.133332 209.266 -1.43051e-06 209.933 -1.43051e-06H223.383C224.016 -1.43051e-06 224.533 0.133332 224.933 0.399999C225.366 0.666665 225.683 1.08333 225.883 1.65L230.233 13C230.899 14.7333 231.383 16.25 231.683 17.55C232.016 18.85 232.183 20 232.183 21V34.2C232.183 34.8333 232.033 35.3 231.733 35.6C231.466 35.8667 231.016 36 230.383 36H222.833C222.166 36 221.666 35.8667 221.333 35.6C221.033 35.3 220.883 34.8333 220.883 34.2V27.2H212.033V34.2ZM244.956 4.9C244.79 4.73333 244.656 4.61667 244.556 4.55C244.456 4.48333 244.34 4.45 244.206 4.45C244.073 4.45 243.94 4.5 243.806 4.6C243.673 4.7 243.606 4.85 243.606 5.05V31.5H244.106V5.15C244.106 5.11666 244.106 5.08333 244.106 5.05C244.14 5.01667 244.173 5 244.206 5C244.24 5 244.273 5.01667 244.306 5.05C244.373 5.08333 244.423 5.11666 244.456 5.15L263.356 26.35V31.5H263.856V4.5H263.356V25.6L244.956 4.9ZM247.656 36H240.156C239.523 36 239.056 35.8667 238.756 35.6C238.49 35.3 238.356 34.8333 238.356 34.2V1.8C238.356 1.16667 238.49 0.716666 238.756 0.449999C239.056 0.149999 239.523 -1.43051e-06 240.156 -1.43051e-06H245.356C245.99 -1.43051e-06 246.523 0.0999983 246.956 0.299998C247.423 0.499999 247.873 0.85 248.306 1.35L258.006 12.45V1.8C258.006 1.16667 258.14 0.716666 258.406 0.449999C258.706 0.149999 259.173 -1.43051e-06 259.806 -1.43051e-06H267.306C267.94 -1.43051e-06 268.39 0.149999 268.656 0.449999C268.956 0.716666 269.106 1.16667 269.106 1.8V34.2C269.106 34.8333 268.956 35.3 268.656 35.6C268.39 35.8667 267.94 36 267.306 36H259.806C259.173 36 258.706 35.8667 258.406 35.6C258.14 35.3 258.006 34.8333 258.006 34.2V28.05L249.456 17.7V34.2C249.456 34.8333 249.306 35.3 249.006 35.6C248.74 35.8667 248.29 36 247.656 36ZM277.003 36C276.369 36 275.903 35.8667 275.603 35.6C275.336 35.3 275.203 34.8333 275.203 34.2V28.25C275.203 27.6167 275.336 27.1667 275.603 26.9C275.903 26.6 276.369 26.45 277.003 26.45H281.953V9.65H277.003C276.369 9.65 275.903 9.51667 275.603 9.25C275.336 8.95 275.203 8.48333 275.203 7.85V1.8C275.203 1.16667 275.336 0.716666 275.603 0.449999C275.903 0.149999 276.369 -1.43051e-06 277.003 -1.43051e-06H298.303C298.936 -1.43051e-06 299.386 0.149999 299.653 0.449999C299.953 0.716666 300.103 1.16667 300.103 1.8V7.85C300.103 8.48333 299.953 8.95 299.653 9.25C299.386 9.51667 298.936 9.65 298.303 9.65H293.453V26.45H298.303C298.936 26.45 299.386 26.6 299.653 26.9C299.953 27.1667 300.103 27.6167 300.103 28.25V34.2C300.103 34.8333 299.953 35.3 299.653 35.6C299.386 35.8667 298.936 36 298.303 36H277.003ZM295.603 31.5V31H287.953V5H295.603V4.5H279.703V5H287.453V31H279.703V31.5H295.603ZM311.326 20.85C311.326 19.95 311.393 19.1167 311.526 18.35C311.693 17.5833 311.893 16.8667 312.126 16.2L315.326 8C315.66 7.16667 316.026 6.46666 316.426 5.9C316.826 5.3 317.526 5 318.526 5H323.426C324.36 5 325.026 5.3 325.426 5.9C325.826 6.46666 326.21 7.18333 326.576 8.05L330.026 16.2C330.26 16.8667 330.443 17.5833 330.576 18.35C330.743 19.1167 330.826 19.95 330.826 20.85V22.4H311.326V20.85ZM319.326 10.5L316.976 18.1H324.826L322.476 10.5C322.343 10.2 322.193 9.98333 322.026 9.85C321.893 9.71667 321.726 9.65 321.526 9.65H320.276C320.076 9.65 319.893 9.71667 319.726 9.85C319.593 9.98333 319.46 10.2 319.326 10.5ZM330.826 31.5H331.326V20.85C331.326 19.9167 331.243 19.0667 331.076 18.3C330.943 17.5 330.743 16.7333 330.476 16L327.026 7.85C326.626 6.88333 326.193 6.08333 325.726 5.45C325.293 4.81666 324.526 4.5 323.426 4.5H318.526C317.393 4.5 316.593 4.81666 316.126 5.45C315.66 6.08333 315.243 6.86667 314.876 7.8L311.676 16C311.41 16.7333 311.193 17.5 311.026 18.3C310.893 19.0667 310.826 19.9167 310.826 20.85V31.5H311.326V22.9H330.826V31.5ZM316.476 34.2C316.476 34.8333 316.326 35.3 316.026 35.6C315.76 35.8667 315.31 36 314.676 36H307.326C306.693 36 306.226 35.8667 305.926 35.6C305.66 35.3 305.526 34.8333 305.526 34.2V21C305.526 20 305.676 18.85 305.976 17.55C306.31 16.25 306.81 14.7333 307.476 13L311.826 1.65C312.026 1.08333 312.326 0.666665 312.726 0.399999C313.16 0.133332 313.71 -1.43051e-06 314.376 -1.43051e-06H327.826C328.46 -1.43051e-06 328.976 0.133332 329.376 0.399999C329.81 0.666665 330.126 1.08333 330.326 1.65L334.676 13C335.343 14.7333 335.826 16.25 336.126 17.55C336.46 18.85 336.626 20 336.626 21V34.2C336.626 34.8333 336.476 35.3 336.176 35.6C335.91 35.8667 335.46 36 334.826 36H327.276C326.61 36 326.11 35.8667 325.776 35.6C325.476 35.3 325.326 34.8333 325.326 34.2V27.2H316.476V34.2Z" fill="white"/>
</svg>
